<?xml version="1.0" encoding="UTF-8" standalone="no"?>
<!-- Created with Inkscape (http://www.inkscape.org/) -->

<svg
   width="850"
   height="850"
   viewBox="0 0 850 850"
   version="1.1"
   id="svg1992"
   sodipodi:docname="HM-logo-square-rounded.svg"
   inkscape:version="1.2.1 (9c6d41e, 2022-07-14)"
   xmlns:inkscape="http://www.inkscape.org/namespaces/inkscape"
   xmlns:sodipodi="http://sodipodi.sourceforge.net/DTD/sodipodi-0.dtd"
   xmlns="http://www.w3.org/2000/svg"
   xmlns:svg="http://www.w3.org/2000/svg">
  <sodipodi:namedview
     id="namedview167"
     pagecolor="#ffffff"
     bordercolor="#000000"
     borderopacity="0.25"
     inkscape:showpageshadow="2"
     inkscape:pageopacity="0.0"
     inkscape:pagecheckerboard="0"
     inkscape:deskcolor="#d1d1d1"
     showgrid="false"
     inkscape:zoom="0.63473232"
     inkscape:cx="585.28609"
     inkscape:cy="456.09777"
     inkscape:window-width="1920"
     inkscape:window-height="1011"
     inkscape:window-x="0"
     inkscape:window-y="0"
     inkscape:window-maximized="1"
     inkscape:current-layer="layer1" />
  <defs
     id="defs1989" />
  <g
     id="layer1">
    <rect
       style="fill:#002255;fill-opacity:1;stroke:none;stroke-width:0;stroke-linecap:round;stroke-linejoin:round;stroke-dasharray:none;stroke-opacity:1;stop-color:#000000"
       id="rect20685"
       width="810"
       height="810"
       x="20"
       y="20"
       rx="70"
       ry="70" />
    <path
       id="path13215"
       style="fill:#79ddfa;fill-opacity:1;stroke-width:1.27202;stroke-linecap:round;stroke-linejoin:round;stop-color:#000000"
       d="m 155,119.99995 c -19.33,0 -34.999,15.6681 -35,34.998 0,19.33 15.67,35 35,35 h 150 c 19.33,0 35,-15.67 35,-35 0,-19.3299 -15.67,-34.998 -35,-34.998 z m 390,0 c -19.33,0 -34.999,15.6681 -35,34.998 0,19.33 15.67,35 35,35 h 150 c 19.33,0 35,-15.67 35,-35 0,-19.3299 -15.67,-34.998 -35,-34.998 z m -370,90 c -19.33,0 -34.999,15.6681 -35,34.998 0,19.33 15.67,35 35,35 h 110 c 19.33,0 35,-15.67 35,-35 0,-19.3299 -15.67,-34.998 -35,-34.998 z m 390,0 c -19.33,0 -34.999,15.6681 -35,34.998 0,19.33 15.67,35 35,35 h 110 c 19.33,0 35,-15.67 35,-35 0,-19.3299 -15.67,-34.998 -35,-34.998 z m -410,90 c -19.33,0 -35,15.67 -35,35 0,19.33 15.67,35 35,35 h 225 c 19.33,0 35,-15.67 35,-35 0,-19.33 -15.67,-35 -35,-35 z m 315,0 c -19.33,0 -35,15.67 -35,35 0,19.33 15.67,35 35,35 h 225 c 19.33,0 35,-15.67 35,-35 0,-19.33 -15.67,-35 -35,-35 z m -295,90 c -19.33,0 -35,15.67 -35,35 0,19.33 15.67,35 35,35 h 500 c 19.33,0 35,-15.67 35,-35 0,-19.33 -15.67,-35 -35,-35 z m -20,90 c -19.33,0 -35,15.67 -35,35 0,19.33 15.67,35 35,35 h 150 c 19.33,0 35,-15.67 35,-35 0,-19.33 -15.67,-35 -35,-35 z m 390,0 c -19.33,0 -35,15.67 -35,35 0,19.33 15.67,35 35,35 h 150 c 19.33,0 35,-15.67 35,-35 0,-19.33 -15.67,-35 -35,-35 z m -150,0.047 c -19.33,0 -35,15.67 -35,35 0,19.33 15.67,35 35,35 h 60 c 19.33,0 35,-15.67 35,-35 0,-19.33 -15.67,-35 -35,-35 z m -220,89.9531 c -19.33,0 -35,15.67 -35,35 0,19.33 15.67,35 35,35 h 110 c 19.33,0 35,-15.67 35,-35 0,-19.33 -15.67,-35 -35,-35 z m 390,0 c -19.33,0 -35,15.67 -35,35 0,19.33 15.67,35 35,35 h 110 c 19.33,0 35,-15.67 35,-35 0,-19.33 -15.67,-35 -35,-35 z m -410,90 c -19.33,0 -35,15.67 -35,35 0,19.33 15.67,35 35,35 h 150 c 19.33,0 35,-15.67 35,-35 0,-19.33 -15.67,-35 -35,-35 z m 390,0 c -19.33,0 -35,15.67 -35,35 0,19.33 15.67,35 35,35 h 150 c 19.33,0 35,-15.67 35,-35 0,-19.33 -15.67,-35 -35,-35 z" />
  </g>
</svg>
